<svg xmlns="http://www.w3.org/2000/svg" version="1.1" xmlns:xlink="http://www.w3.org/1999/xlink" xmlns:svgjs="http://svgjs.dev/svgjs" width="2000" height="2350" viewBox="0 0 2000 2350"><g transform="matrix(1,0,0,1,-2.7641406315070753,-3.7903225806451246)"><svg viewBox="0 0 211 248" data-background-color="#ffffff" preserveAspectRatio="xMidYMid meet" height="2350" width="2000" xmlns="http://www.w3.org/2000/svg" xmlns:xlink="http://www.w3.org/1999/xlink"><g id="tight-bounds" transform="matrix(1,0,0,1,0.2916168366240015,0.4000000000000057)"><svg viewBox="0 0 210.416766326752 247.2" height="247.2" width="210.416766326752"><g><svg viewBox="0 0 395.52 464.6613751689871" height="247.2" width="210.416766326752"><g transform="matrix(1,0,0,1,0,272.58460283829277)"><svg viewBox="0 0 395.52 192.07677233069433" height="192.07677233069433" width="395.52"><g id="textblocktransform"><svg viewBox="0 0 395.52 192.07677233069433" height="192.07677233069433" width="395.52" id="textblock"><g><svg viewBox="0 0 395.52 119.2549977053694" height="119.2549977053694" width="395.52"><g transform="matrix(1,0,0,1,0,0)"><svg width="395.52" viewBox="2.3 -32.2 108.94 32.85" height="119.2549977053694" data-palette-color="#113f67"><path d="M4.95 0.5L4.95 0.5Q3.85 0.5 3.08-0.08 2.3-0.65 2.3-2.8L2.3-2.8Q2.3-3.9 2.53-5.48 2.75-7.05 3-8.75L3-8.75Q3.4-11.15 3.8-14.03 4.2-16.9 4.2-19.75L4.2-19.75Q4.2-22.75 4-24.35 3.8-25.95 3.55-26.95L3.55-26.95Q3.45-27.5 3.38-27.95 3.3-28.4 3.3-28.95L3.3-28.95Q3.3-30.55 4.33-31.38 5.35-32.2 6.6-32.2L6.6-32.2Q7.85-32.2 8.7-31.58 9.55-30.95 10.2-30.25L10.2-30.25Q14.5-25.4 17.95-20.08 21.4-14.75 23.7-9.15L23.7-9.15Q23.95-8.75 24.15-8.75L24.15-8.75Q24.45-8.75 24.55-9.15L24.55-9.15Q25.45-15 25.45-19.75L25.45-19.75Q25.45-22.6 25.23-24.28 25-25.95 24.68-26.88 24.35-27.8 24.05-28.35L24.05-28.35Q23.9-28.7 23.8-28.98 23.7-29.25 23.7-29.5L23.7-29.5Q23.7-30.1 24.33-30.73 24.95-31.35 25.85-31.75 26.75-32.15 27.6-32.15L27.6-32.15Q28.8-32.15 29.35-31.35 29.9-30.55 30.08-29.38 30.25-28.2 30.25-27L30.25-27Q30.25-25.65 30-23.5 29.75-21.35 29.43-18.88 29.1-16.4 28.88-14 28.65-11.6 28.65-9.75L28.65-9.75Q28.65-8.7 28.73-7.7 28.8-6.7 28.9-5.75L28.9-5.75Q29.05-4.5 29.05-3.55L29.05-3.55Q29.05-1.7 28.13-0.63 27.2 0.45 25.6 0.45L25.6 0.45Q24.5 0.45 23.43-0.2 22.35-0.85 21.8-2.3L21.8-2.3Q19.65-7.8 16.53-13.03 13.4-18.25 10-22.05L10-22.05Q9.45-22.55 9.1-22.55L9.1-22.55Q8.6-22.55 8.45-21.45L8.45-21.45Q8.2-19.55 7.95-17.3 7.7-15.05 7.55-12.93 7.4-10.8 7.4-9.3L7.4-9.3Q7.4-7.6 7.7-6.38 8-5.15 8.6-4L8.6-4Q9.15-3 9.15-2.2L9.15-2.2Q9.15-1.25 8.05-0.38 6.95 0.5 4.95 0.5ZM42.2 0.65L42.2 0.65Q38.75 0.65 36.67-1.23 34.6-3.1 34.6-6.75L34.6-6.75Q34.6-8.45 35.07-10.05 35.55-11.65 36.35-13.05L36.35-13.05Q35.55-12.55 35.15-12.55L35.15-12.55Q34.55-12.55 34.32-13.23 34.1-13.9 34.1-14.55L34.1-14.55Q34.1-15.7 34.57-16.38 35.05-17.05 35.5-17.4L35.5-17.4Q36.55-18.3 38.8-19.38 41.05-20.45 44.2-20.45L44.2-20.45Q48.5-20.45 50.87-18.05 53.25-15.65 53.25-11.35L53.25-11.35Q53.25-8 51.85-5.28 50.45-2.55 47.97-0.95 45.5 0.65 42.2 0.65ZM43.75-4.45L43.75-4.45Q46.25-4.45 47.97-6.03 49.7-7.6 49.7-10.2L49.7-10.2Q49.7-12.9 47.95-14.05 46.2-15.2 43.9-15.2L43.9-15.2Q42.85-15.2 42-15 41.15-14.8 40.4-14.5L40.4-14.5Q39.7-13.5 39.15-12.25 38.6-11 38.6-9.5L38.6-9.5Q38.6-7 40.1-5.73 41.6-4.45 43.75-4.45ZM64.4 0.65L64.4 0.65Q61.35 0.65 60.02-1.38 58.7-3.4 58.7-6.6L58.7-6.6Q58.7-7.75 58.82-8.85 58.95-9.95 59.1-11.05L59.1-11.05Q59.25-12.15 59.4-13.2 59.55-14.25 59.65-15.2L59.65-15.2Q58.6-14.9 57.55-14.9L57.55-14.9Q56.45-14.9 56.45-15.8L56.45-15.8Q56.45-16.75 57.3-18.13 58.15-19.5 59.42-20.85 60.7-22.2 61.97-23.13 63.25-24.05 64.15-24.05L64.15-24.05Q65.25-24.05 65.25-22.15L65.25-22.15Q65.25-21.65 65.17-21.13 65.1-20.6 65-20.05L65-20.05Q65.95-20.25 66.92-20.4 67.9-20.55 68.8-20.55L68.8-20.55Q69.95-20.55 70.57-20.15 71.2-19.75 71.2-18.6L71.2-18.6Q71.2-17.4 70.62-16.2 70.05-15 69.35-15L69.35-15Q69.2-15 68.85-15.05 68.5-15.1 68-15.2L68-15.2Q67.35-15.35 66.35-15.5 65.35-15.65 63.95-15.65L63.95-15.65Q63.6-14.1 63.32-12.48 63.05-10.85 63.05-9.55L63.05-9.55Q63.05-6.65 64.5-5.6 65.95-4.55 68.7-4.55L68.7-4.55Q69.55-4.55 69.9-4.28 70.25-4 70.25-3.3L70.25-3.3Q70.25-1.65 68.55-0.5 66.85 0.65 64.4 0.65ZM81.29 0.65L81.29 0.65Q77.49 0.65 75.37-1.53 73.24-3.7 73.24-7.6L73.24-7.6Q73.24-11.15 74.79-14.05 76.34-16.95 78.97-18.68 81.59-20.4 84.74-20.4L84.74-20.4Q87.74-20.4 89.54-18.93 91.34-17.45 91.34-15L91.34-15Q91.34-13.05 90.14-11.4 88.94-9.75 86.94-8.78 84.94-7.8 82.49-7.8L82.49-7.8Q79.49-7.8 77.59-9.15L77.59-9.15Q77.64-6.85 79.17-5.45 80.69-4.05 83.09-4.05L83.09-4.05Q84.54-4.05 86.07-4.58 87.59-5.1 88.69-6L88.69-6Q89.39-6.6 89.99-6.6L89.99-6.6Q90.49-6.6 90.82-6.28 91.14-5.95 91.14-5.45L91.14-5.45Q91.14-4.35 89.24-2.55L89.24-2.55Q85.89 0.65 81.29 0.65ZM82.04-11.1L82.04-11.1Q83.84-11.1 85.04-11.85 86.24-12.6 86.24-13.75L86.24-13.75Q86.24-14.7 85.44-15.23 84.64-15.75 83.24-15.75L83.24-15.75Q81.39-15.75 80.02-14.78 78.64-13.8 78.04-12.05L78.04-12.05Q78.74-11.6 79.84-11.35 80.94-11.1 82.04-11.1ZM101.79 0.65L101.79 0.65Q99.94 0.65 98.34 0.1 96.74-0.45 95.74-1.45 94.74-2.45 94.74-3.85L94.74-3.85Q94.74-4.6 95.12-5.28 95.49-5.95 96.34-5.95L96.34-5.95Q96.79-5.95 97.29-5.7L97.29-5.7Q98.19-5.2 99.59-4.78 100.99-4.35 102.54-4.35L102.54-4.35Q104.29-4.35 105.64-4.85 106.99-5.35 106.99-6.25L106.99-6.25Q106.99-6.95 105.97-7.25 104.94-7.55 102.54-7.9L102.54-7.9Q100.89-8.2 99.34-8.6 97.79-9 96.79-9.98 95.79-10.95 95.79-12.85L95.79-12.85Q95.79-14.7 96.82-16.43 97.84-18.15 99.89-19.3 101.94-20.45 104.89-20.45L104.89-20.45Q106.44-20.45 107.89-20.1 109.34-19.75 110.29-19.05 111.24-18.35 111.24-17.3L111.24-17.3Q111.24-16.4 110.62-15.65 109.99-14.9 109.17-14.43 108.34-13.95 107.79-13.95L107.79-13.95Q107.39-13.95 106.84-14.5L106.84-14.5Q105.99-15.2 104.97-15.48 103.94-15.75 102.94-15.75L102.94-15.75Q101.44-15.75 100.52-15.3 99.59-14.85 99.59-14.15L99.59-14.15Q99.59-13.5 100.37-13.1 101.14-12.7 102.29-12.53 103.44-12.35 104.49-12.2L104.49-12.2Q107.39-11.8 109.09-10.83 110.79-9.85 110.79-7.4L110.79-7.4Q110.79-5.5 109.72-3.63 108.64-1.75 106.62-0.55 104.59 0.65 101.79 0.65Z" opacity="1" transform="matrix(1,0,0,1,0,0)" fill="#113f67" class="wordmark-text-0" data-fill-palette-color="primary" id="text-0"></path></svg></g></svg></g><g transform="matrix(1,0,0,1,75.54432,147.4082405436622)"><svg viewBox="0 0 244.43135999999998 44.66853178703215" height="44.66853178703215" width="244.43135999999998"><g transform="matrix(1,0,0,1,0,0)"><svg width="244.43135999999998" viewBox="3.3 -38.38 277.84999999999997 50.78" height="44.66853178703215" data-palette-color="#87c0cd"><path d="M25.66-22.44L25.66-22.44Q26.56-23.54 28.45-24.57 30.35-25.61 33.79-25.61L33.79-25.61Q38.67-25.61 40.84-23.1 43.02-20.58 43.02-15.55L43.02-15.55 43.02-1.29Q43.02-0.56 42.71-0.28 42.41 0 41.67 0L41.67 0 36.65 0Q35.91 0 35.61-0.28 35.3-0.56 35.3-1.29L35.3-1.29 35.3-14.28Q35.3-17.02 34.3-18.2 33.3-19.38 31.3-19.38L31.3-19.38Q29.52-19.38 28.48-18.59 27.44-17.8 27-16.46L27-16.46 27-1.29Q27-0.56 26.7-0.28 26.39 0 25.66 0L25.66 0 20.63 0Q19.9 0 19.59-0.28 19.29-0.56 19.29-1.29L19.29-1.29 19.29-14.28Q19.29-16.94 18.19-18.16 17.09-19.38 15.31-19.38L15.31-19.38Q13.62-19.38 12.6-18.55 11.57-17.72 11.01-16.46L11.01-16.46 11.01-1.29Q11.01-0.56 10.71-0.28 10.4 0 9.67 0L9.67 0 4.64 0Q3.91 0 3.6-0.28 3.3-0.56 3.3-1.29L3.3-1.29 3.3-21.75Q3.3-22.34 3.54-22.66L3.54-22.66Q4.05-23.34 4.77-24.05 5.49-24.76 6.54-25.56L6.54-25.56Q6.86-25.81 7.15-25.81L7.15-25.81Q7.42-25.81 7.76-25.56L7.76-25.56Q8.79-24.76 9.52-24.02 10.25-23.29 10.82-22.51L10.82-22.51 10.94-22.51Q11.77-23.56 13.53-24.58 15.28-25.61 18.55-25.61L18.55-25.61Q21.68-25.61 23.19-24.67 24.71-23.73 25.66-22.44ZM56.08 0.61L56.08 0.61Q52.49 0.61 50.38-1.4 48.26-3.42 48.26-6.96L48.26-6.96Q48.26-8.79 48.94-10.36 49.61-11.94 51.28-13.15 52.95-14.36 55.97-15.09 58.98-15.82 63.67-15.94L63.67-15.94Q63.67-18.16 62.56-19.14 61.45-20.12 59.23-20.12L59.23-20.12Q57.22-20.12 55.95-19.43 54.69-18.75 54.37-18.51L54.37-18.51Q54.03-18.21 53.54-18.29L53.54-18.29Q52.88-18.38 52.13-18.63 51.39-18.87 50.53-19.19L50.53-19.19Q50.41-19.24 50.27-19.35 50.12-19.46 50.1-19.68L50.1-19.68Q50.1-19.8 50.12-19.98 50.14-20.17 50.24-20.65L50.24-20.65Q50.34-21.14 50.53-21.86 50.73-22.58 50.9-22.97L50.9-22.97Q51.12-23.39 51.63-23.75L51.63-23.75Q52.05-24.1 54.15-24.85 56.25-25.61 60.23-25.61L60.23-25.61Q71.19-25.61 71.19-14.94L71.19-14.94 71.19-1.12Q71.19-0.66 70.93-0.33 70.68 0 70.07 0L70.07 0 66.4 0Q66.01 0 65.71-0.11 65.4-0.22 65.13-0.54L65.13-0.54 63.62-2.49 63.45-2.49Q62.33-0.85 60.43-0.12 58.54 0.61 56.08 0.61ZM58.76-5.05L58.76-5.05Q61.01-5.05 62.16-6.2 63.3-7.35 63.62-8.57L63.62-8.57 63.62-11.28Q60.23-11.28 58.53-10.75 56.83-10.23 56.27-9.39 55.71-8.54 55.71-7.57L55.71-7.57Q55.71-6.15 56.59-5.6 57.47-5.05 58.76-5.05ZM85.49-10.21L85.49-1.29Q85.49-0.56 85.19-0.28 84.88 0 84.15 0L84.15 0 79.12 0Q78.39 0 78.08-0.28 77.78-0.56 77.78-1.29L77.78-1.29 77.78-34.33Q77.78-34.91 78.02-35.23L78.02-35.23Q79.05-36.57 81.03-38.13L81.03-38.13Q81.37-38.38 81.64-38.38L81.64-38.38Q81.95-38.38 82.25-38.13L82.25-38.13Q83.3-37.33 84.02-36.62 84.74-35.91 85.25-35.23L85.25-35.23Q85.49-34.91 85.49-34.33L85.49-34.33 85.49-15.16 85.79-15.16Q89.5-15.16 90.83-16.49 92.16-17.82 92.16-20.19L92.16-20.19 92.16-21.51Q92.16-22.09 92.4-22.41L92.4-22.41Q93.43-23.75 95.41-25.32L95.41-25.32Q95.75-25.56 96.02-25.56L96.02-25.56Q96.33-25.56 96.63-25.32L96.63-25.32Q97.68-24.51 98.4-23.8 99.12-23.1 99.63-22.41L99.63-22.41Q99.87-22.09 99.87-21.51L99.87-21.51 99.87-20.19Q99.87-18.8 99.32-17.11 98.77-15.43 97.33-14.14 95.89-12.84 93.23-12.62L93.23-12.62 93.23-12.5Q95.28-11.6 96.77-10.11 98.26-8.62 99.26-6.92 100.26-5.22 100.81-3.67 101.36-2.12 101.53-1.05L101.53-1.05Q101.7 0 100.83 0L100.83 0 94.4 0Q93.57 0 93.45-1L93.45-1Q93.28-2.15 92.71-3.7 92.13-5.25 91.17-6.74 90.2-8.23 88.85-9.22 87.5-10.21 85.79-10.21L85.79-10.21 85.49-10.21ZM104.95-33.2L104.95-33.2Q104.95-33.52 105.14-33.76 105.34-34.01 105.66-34.4L105.66-34.4Q106.34-35.18 107.24-36.05 108.15-36.91 109.07-37.72L109.07-37.72Q109.66-38.18 109.95-38.18L109.95-38.18Q110.25-38.18 110.86-37.72L110.86-37.72Q112.83-36.01 114.23-34.4L114.23-34.4Q114.54-34.03 114.75-33.78 114.96-33.52 114.96-33.2L114.96-33.2Q114.96-32.89 114.75-32.64 114.54-32.4 114.2-31.98L114.2-31.98Q113.54-31.23 112.66-30.36 111.78-29.49 110.86-28.71L110.86-28.71Q110.51-28.42 110.32-28.33 110.12-28.25 109.95-28.25L109.95-28.25Q109.78-28.25 109.6-28.33 109.42-28.42 109.03-28.71L109.03-28.71Q108.05-29.49 107.19-30.36 106.34-31.23 105.66-32.03L105.66-32.03Q105.34-32.42 105.14-32.65 104.95-32.89 104.95-33.2ZM113.79-23.71L113.79-1.29Q113.79-0.56 113.48-0.28 113.18 0 112.44 0L112.44 0 107.41 0Q106.68 0 106.38-0.28 106.07-0.56 106.07-1.29L106.07-1.29 106.07-23.71Q106.07-24.44 106.38-24.72 106.68-25 107.41-25L107.41-25 112.44-25Q113.18-25 113.48-24.72 113.79-24.44 113.79-23.71L113.79-23.71ZM144.59-15.55L144.59-15.55 144.59-1.29Q144.59-0.56 144.29-0.28 143.98 0 143.25 0L143.25 0 138.22 0Q137.49 0 137.18-0.28 136.88-0.56 136.88-1.29L136.88-1.29 136.88-14.28Q136.88-16.94 135.76-18.16 134.63-19.38 132.7-19.38L132.7-19.38Q130.78-19.38 129.74-18.55 128.7-17.72 128.14-16.46L128.14-16.46 128.14-1.29Q128.14-0.56 127.83-0.28 127.53 0 126.8 0L126.8 0 121.77 0Q121.03 0 120.73-0.28 120.42-0.56 120.42-1.29L120.42-1.29 120.42-21.75Q120.42-22.34 120.67-22.66L120.67-22.66Q121.18-23.34 121.9-24.05 122.62-24.76 123.67-25.56L123.67-25.56Q123.99-25.81 124.28-25.81L124.28-25.81Q124.55-25.81 124.89-25.56L124.89-25.56Q125.92-24.76 126.65-24.02 127.38-23.29 127.94-22.51L127.94-22.51 128.07-22.51Q128.48-23.05 129.31-23.77 130.14-24.49 131.64-25.05 133.14-25.61 135.49-25.61L135.49-25.61Q137.78-25.61 139.86-24.68 141.93-23.75 143.26-21.56 144.59-19.36 144.59-15.55ZM175.35-22.66L175.35-22.66 175.35-2.86Q175.35 4.27 171.29 8.01 167.22 11.74 160.14 11.74L160.14 11.74Q157.21 11.74 155.51 11.32 153.8 10.89 152.92 10.5L152.92 10.5Q152.36 10.23 152.18 9.94L152.18 9.94Q151.94 9.55 151.64 8.79 151.33 8.03 151.06 7.13L151.06 7.13Q150.99 6.79 151.04 6.62L151.04 6.62Q151.13 6.37 151.4 6.1L151.4 6.1Q151.84 5.66 152.66 5.08 153.48 4.49 153.92 4.32L153.92 4.32Q154.38 4.15 154.77 4.37L154.77 4.37Q155.41 4.71 156.59 5.14 157.78 5.57 159.92 5.57L159.92 5.57Q163.34 5.57 165.49 3.81 167.64 2.05 167.64-1.61L167.64-1.61 167.64-2.49 167.54-2.49Q167-1.81 166.15-1.1 165.3-0.39 163.94 0.1 162.59 0.59 160.46 0.59L160.46 0.59Q156.77 0.59 154.42-1.01 152.06-2.61 150.95-5.42 149.84-8.23 149.84-11.82L149.84-11.82Q149.84-15.75 151.13-18.87 152.43-22 155.48-23.82 158.53-25.63 163.83-25.63L163.83-25.63Q167-25.63 169.16-25.17 171.33-24.71 172.79-24.02 174.26-23.34 175.35-22.66ZM163.56-19.73L163.56-19.73Q160.73-19.73 159.24-17.82 157.75-15.92 157.75-11.91L157.75-11.91Q157.75-5.64 162.93-5.64L162.93-5.64Q164.95-5.64 166.03-6.47 167.1-7.3 167.64-8.57L167.64-8.57 167.64-18.65Q167.1-19.04 166.13-19.38 165.15-19.73 163.56-19.73ZM202.2 0.61L202.2 0.61Q198.62 0.61 196.5-1.4 194.39-3.42 194.39-6.96L194.39-6.96Q194.39-8.79 195.06-10.36 195.73-11.94 197.41-13.15 199.08-14.36 202.09-15.09 205.11-15.82 209.8-15.94L209.8-15.94Q209.8-18.16 208.69-19.14 207.58-20.12 205.35-20.12L205.35-20.12Q203.35-20.12 202.08-19.43 200.81-18.75 200.5-18.51L200.5-18.51Q200.15-18.21 199.67-18.29L199.67-18.29Q199.01-18.38 198.26-18.63 197.52-18.87 196.66-19.19L196.66-19.19Q196.54-19.24 196.39-19.35 196.25-19.46 196.22-19.68L196.22-19.68Q196.22-19.8 196.25-19.98 196.27-20.17 196.37-20.65L196.37-20.65Q196.47-21.14 196.66-21.86 196.86-22.58 197.03-22.97L197.03-22.97Q197.25-23.39 197.76-23.75L197.76-23.75Q198.18-24.1 200.28-24.85 202.38-25.61 206.35-25.61L206.35-25.61Q217.32-25.61 217.32-14.94L217.32-14.94 217.32-1.12Q217.32-0.66 217.06-0.33 216.8 0 216.19 0L216.19 0 212.53 0Q212.14 0 211.84-0.11 211.53-0.22 211.26-0.54L211.26-0.54 209.75-2.49 209.58-2.49Q208.45-0.85 206.56-0.12 204.67 0.61 202.2 0.61ZM204.89-5.05L204.89-5.05Q207.14-5.05 208.28-6.2 209.43-7.35 209.75-8.57L209.75-8.57 209.75-11.28Q206.35-11.28 204.66-10.75 202.96-10.23 202.4-9.39 201.84-8.54 201.84-7.57L201.84-7.57Q201.84-6.15 202.72-5.6 203.6-5.05 204.89-5.05ZM239.46-25.61L239.46-25.61Q243.02-25.61 245.33-24.01 247.64-22.41 248.77-19.62 249.91-16.82 249.91-13.21L249.91-13.21Q249.91-9.3 248.58-6.18 247.25-3.05 244.66-1.22 242.07 0.61 238.24 0.61L238.24 0.61Q236.26 0.61 234.98 0.16 233.7-0.29 232.93-0.92 232.16-1.54 231.72-2.05L231.72-2.05 231.62-2.05 231.62 8.35Q231.62 8.94 231.38 9.25L231.38 9.25Q230.35 10.6 228.37 12.16L228.37 12.16Q228.03 12.4 227.76 12.4L227.76 12.4Q227.47 12.4 227.15 12.16L227.15 12.16Q226.1 11.35 225.38 10.64 224.66 9.94 224.15 9.25L224.15 9.25Q223.91 8.94 223.91 8.35L223.91 8.35 223.91-21.75Q223.91-22.34 224.15-22.66L224.15-22.66Q224.66-23.34 225.38-24.05 226.1-24.76 227.15-25.56L227.15-25.56Q227.47-25.81 227.81-25.81L227.81-25.81Q228.13-25.81 228.47-25.56L228.47-25.56Q229.5-24.76 230.23-24.02 230.96-23.29 231.52-22.51L231.52-22.51 231.65-22.51Q232.06-23.02 232.91-23.75 233.77-24.49 235.34-25.05 236.92-25.61 239.46-25.61ZM236.45-5.62L236.45-5.62Q239.09-5.62 240.54-7.46 242-9.3 242-12.79L242-12.79Q242-19.38 236.58-19.38L236.58-19.38Q234.28-19.38 233.18-18.44 232.08-17.5 231.62-16.46L231.62-16.46 231.62-11.16Q231.62-8.79 232.84-7.2 234.06-5.62 236.45-5.62ZM270.71-25.61L270.71-25.61Q274.27-25.61 276.58-24.01 278.88-22.41 280.02-19.62 281.15-16.82 281.15-13.21L281.15-13.21Q281.15-9.3 279.82-6.18 278.49-3.05 275.91-1.22 273.32 0.61 269.48 0.61L269.48 0.61Q267.51 0.61 266.23 0.16 264.94-0.29 264.17-0.92 263.41-1.54 262.97-2.05L262.97-2.05 262.87-2.05 262.87 8.35Q262.87 8.94 262.62 9.25L262.62 9.25Q261.6 10.6 259.62 12.16L259.62 12.16Q259.28 12.4 259.01 12.4L259.01 12.4Q258.72 12.4 258.4 12.16L258.4 12.16Q257.35 11.35 256.63 10.64 255.91 9.94 255.4 9.25L255.4 9.25Q255.15 8.94 255.15 8.35L255.15 8.35 255.15-21.75Q255.15-22.34 255.4-22.66L255.4-22.66Q255.91-23.34 256.63-24.05 257.35-24.76 258.4-25.56L258.4-25.56Q258.72-25.81 259.06-25.81L259.06-25.81Q259.38-25.81 259.72-25.56L259.72-25.56Q260.74-24.76 261.48-24.02 262.21-23.29 262.77-22.51L262.77-22.51 262.89-22.51Q263.31-23.02 264.16-23.75 265.02-24.49 266.59-25.05 268.17-25.61 270.71-25.61ZM267.7-5.62L267.7-5.62Q270.34-5.62 271.79-7.46 273.24-9.3 273.24-12.79L273.24-12.79Q273.24-19.38 267.82-19.38L267.82-19.38Q265.53-19.38 264.43-18.44 263.33-17.5 262.87-16.46L262.87-16.46 262.87-11.16Q262.87-8.79 264.09-7.2 265.31-5.62 267.7-5.62Z" opacity="1" transform="matrix(1,0,0,1,0,0)" fill="#87c0cd" class="slogan-text-1" data-fill-palette-color="secondary" id="text-1"></path></svg></g></svg></g></svg></g></svg></g><g transform="matrix(1,0,0,1,75.54432,0)"><svg viewBox="0 0 244.43135999999998 244.43135999999998" height="244.43135999999998" width="244.43135999999998"><g><svg></svg></g><g id="icon-0"><svg viewBox="0 0 244.43135999999998 244.43135999999998" height="244.43135999999998" width="244.43135999999998"><g><path transform="scale(2.44431,2.44431)" d="M30 100c-16.569 0-30-13.431-30-30v-40c0-16.569 13.431-30 30-30h40c16.569 0 30 13.431 30 30v40c0 16.569-13.431 30-30 30z" fill="#87c0cd" fill-rule="nonzero" stroke="none" stroke-width="1" stroke-linecap="butt" stroke-linejoin="miter" stroke-miterlimit="10" stroke-dasharray="" stroke-dashoffset="0" font-family="none" font-weight="none" font-size="none" text-anchor="none" style="mix-blend-mode: normal" data-fill-palette-color="accent"></path></g><g transform="matrix(1,0,0,1,75.36686149673386,48.886272000000005)"><svg viewBox="0 0 93.69763700653228 146.65881599999997" height="146.65881599999997" width="93.69763700653228"><g><svg xmlns="http://www.w3.org/2000/svg" xmlns:xlink="http://www.w3.org/1999/xlink" version="1.1" x="0" y="0" viewBox="28.5 16.6 42.613410900137794 66.69999999999999" enable-background="new 0 0 100 100" xml:space="preserve" height="146.65881599999997" width="93.69763700653228" class="icon-dxe-0" data-fill-palette-color="quaternary" id="dxe-0"><path d="M63.4 53.3C61.7 52 60.8 51.2 60.7 50.1 60.6 48.9 60.2 47.7 59.6 46.7L61.9 43.7C62.3 43.2 62.4 42.5 62.2 41.9L55.5 18.1C55.3 17.2 54.5 16.6 53.6 16.6H46.3C45.4 16.6 44.6 17.2 44.4 18.1L37.7 41.9C37.5 42.5 37.7 43.2 38 43.7L40.3 46.7C39.7 47.7 39.3 48.8 39.2 50.1 39.1 51.3 38.2 52 36.5 53.3 33.3 55.8 28.5 59.5 28.5 70.2V77.4C28.5 80.7 31.2 83.3 34.4 83.3S40.3 80.6 40.3 77.4V70.3C40.3 65.3 43.1 62.9 46.1 60.4 47.4 59.3 48.8 58.1 49.8 56.7 50.9 58.1 52.2 59.3 53.5 60.4 56.5 62.9 59.3 65.3 59.3 70.3V77.4C59.3 80.7 62 83.3 65.2 83.3S71.1 80.6 71.1 77.4V70.2C71.4 59.4 66.6 55.7 63.4 53.3M52 40.5C52.8 40 53.9 39 53.9 36.8S52.8 33.5 52 33.1V20.6H52.1L58.1 42 56.7 43.8C56.2 43.5 55.7 43.3 55.1 43.2 54.3 42.9 53.3 42.7 52.2 42.7H52zM47.8 20.6H48V33C47.1 33.5 46.1 34.6 46.1 36.7 46.1 38.9 47 39.9 48 40.4V42.6C46.7 42.6 45.6 42.8 44.7 43.1 44.2 43.2 43.7 43.4 43.2 43.7L41.9 42zM43.7 57.3C40.5 60 36.5 63.4 36.5 70.3V77.4C36.5 78.5 35.6 79.3 34.6 79.3S32.7 78.4 32.7 77.4V70.2C32.7 61.4 36.1 58.8 39.2 56.4 41.2 54.9 43.2 53.3 43.5 50.3 43.6 49.5 43.9 48.8 44.2 48.3 44.4 48.2 44.5 48.1 44.6 47.9 44.6 47.9 45.1 47.4 46 47H46.3C47.6 47 48.1 49.2 48.1 51.1 48 53.6 46.4 55.1 43.7 57.3M67.4 77.5C67.4 78.6 66.5 79.4 65.5 79.4S63.6 78.5 63.6 77.5V70.4C63.6 63.5 59.6 60.1 56.4 57.4 53.7 55.1 52.1 53.6 52.1 51.1 52.1 49.2 52.6 47 53.9 47H54.2C55.1 47.4 55.5 47.9 55.6 47.9L56 48.3C56.4 48.8 56.7 49.5 56.7 50.3 57 53.3 59 54.8 61 56.4 64 58.7 67.5 61.4 67.5 70.2V77.5z" fill="#ffffff" data-fill-palette-color="quaternary"></path></svg></g></svg></g></svg></g></svg></g><g></g></svg></g><defs></defs></svg><rect width="210.416766326752" height="247.2" fill="none" stroke="none" visibility="hidden"></rect></g></svg></g></svg>